#!OML:ASF E:\Style4\Style4.ASF
:FULLY-SPECIFIED
:DEGREES
2006
root -0.509032 16.7189 -1.59434 6.75608 2.8366 5.38539
lowerback 20.3122 3.99313 0.0899036
upperback 11.835 5.20301 -0.737672
thorax 1.58517 2.66483 -1.77984
lowerneck 5.9939 -2.58098 -3.80821
upperneck -8.33604 -3.63922 2.25542
head -3.66367 -1.78385 1.60154
rclavicle -4.85035e-014 3.33958e-014
rhumerus 18.6461 11.1697 -79.9321
rradius 126.848
rwrist 24.9253
rhand 22.6332 -4.27794
rfingers 7.12502
rthumb 46.9797 -26.9531
lclavicle -4.85035e-014 3.33958e-014
lhumerus 23.9962 -16.2 79.236
lradius 128.829
lwrist -15.424
lhand 15.9478 40.4397
lfingers 7.12502
lthumb 40.743 65.4373
rfemur -37.4298 -1.08103 15.5159
rtibia 58.6408
rfoot -26.0682 -15.6246
rtoes -9.55365
lfemur -35.9092 1.21542 -22.4558
ltibia 53.1665
lfoot -22.1554 3.36587
ltoes -18.9166
2007
root -0.516289 16.7211 -1.59294 6.80269 2.99668 5.37112
lowerback 20.1418 3.99067 0.0355331
upperback 11.9513 5.19668 -0.71194
thorax 1.79036 2.66066 -1.70313
lowerneck 5.97794 -2.58495 -3.84456
upperneck -8.47581 -3.65179 2.20911
head -3.70942 -1.78545 1.59579
rclavicle -1.11319e-014 2.38542e-015
rhumerus 18.7844 11.203 -79.7983
rradius 126.869
rwrist 24.8867
rhand 22.478 -4.32274
rfingers 7.12502
rthumb 46.8362 -27.0608
lclavicle -1.11319e-014 2.38542e-015
lhumerus 24.1845 -16.1541 79.3135
lradius 128.866
lwrist -15.4785
lhand 15.8067 40.5929
lfingers 7.12502
lthumb 40.6105 65.6319
rfemur -37.4152 -1.21569 15.5765
rtibia 58.5969
rfoot -26.0658 -15.7191
rtoes -9.71433
lfemur -35.9399 1.06413 -22.3897
ltibia 53.102
lfoot -22.0793 3.2568
ltoes -18.6134
2008
root -0.524166 16.7249 -1.59257 6.85433 3.14914 5.34585
lowerback 20.2173 4.02476 0.086918
upperback 11.9396 5.24861 -0.776145
thorax 1.75318 2.69236 -1.81463
lowerneck 5.76788 -2.6508 -3.65413
upperneck -8.3697 -3.71664 2.18615
head -3.63171 -1.8235 1.54934
rclavicle 1.11319e-014 -1.19271e-014
rhumerus 18.7069 11.0684 -79.7925
rradius 126.92
rwrist 24.9854
rhand 22.3789 -4.38691
rfingers 7.12502
rthumb 46.7444 -27.1649
lclavicle 1.11319e-014 -1.19271e-014
lhumerus 24.2128 -16.3475 79.2724
lradius 128.805
lwrist -15.4587
lhand 15.433 40.4998
lfingers 7.12502
lthumb 40.2591 65.6472
rfemur -37.4215 -1.31569 15.6466
rtibia 58.5398
rfoot -26.017 -15.7952
rtoes -10.0173
lfemur -35.9791 0.893704 -22.3034
ltibia 53.0278
lfoot -21.9985 3.18407
ltoes -18.2988
2009
root -0.532116 16.7304 -1.59103 6.89987 3.33137 5.3165
lowerback 20.2005 4.05071 0.201277
upperback 11.9766 5.30258 -0.858625
thorax 1.82371 2.73062 -1.97138
lowerneck 5.63332 -2.73768 -3.43625
upperneck -8.36867 -3.80708 2.20542
head -3.6049 -1.87613 1.51754
rclavicle -1.82882e-014 5.56597e-015
rhumerus 18.7186 10.8629 -79.8093
rradius 126.914
rwrist 25.1045
rhand 22.2527 -4.50935
rfingers 7.12502
rthumb 46.6275 -27.3379
lclavicle -1.82882e-014 5.56597e-015
lhumerus 24.1565 -16.6096 79.1688
lradius 128.721
lwrist -15.4002
lhand 15.0629 40.3011
lfingers 7.12502
lthumb 39.9109 65.554
rfemur -37.3856 -1.46397 15.7261
rtibia 58.4723
rfoot -26.0559 -15.7947
rtoes -9.86695
lfemur -36.0015 0.748454 -22.2198
ltibia 52.954
lfoot -21.9177 3.06432
ltoes -18.1088
2010
root -0.537123 16.7352 -1.58775 6.93979 3.50041 5.33044
lowerback 20.2216 4.02331 0.222402
upperback 11.9539 5.27128 -0.910849
thorax 1.79444 2.71843 -2.0354
lowerneck 5.67249 -2.75428 -3.37552
upperneck -8.40194 -3.82698 2.18453
head -3.62484 -1.88686 1.50247
rclavicle -4.53229e-014 1.03368e-014
rhumerus 18.759 10.8648 -79.7945
rradius 126.905
rwrist 24.9506
rhand 22.0902 -4.7263
rfingers 7.12502
rthumb 46.477 -27.6195
lclavicle -4.53229e-014 1.03368e-014
lhumerus 24.0174 -16.6776 79.1935
lradius 128.696
lwrist -15.3916
lhand 14.9238 40.3236
lfingers 7.12502
lthumb 39.78 65.6156
rfemur -37.3318 -1.62549 15.7405
rtibia 58.4113
rfoot -26.1372 -15.7211
rtoes -9.30164
lfemur -35.9911 0.576102 -22.1933
ltibia 52.876
lfoot -21.9161 2.97406
ltoes -17.8415
2011
root -0.542516 16.7384 -1.587 6.95719 3.65758 5.35017
lowerback 20.3423 4.00731 0.251658
upperback 11.9038 5.25408 -0.96299
thorax 1.68678 2.71282 -2.11517
lowerneck 5.75673 -2.76877 -3.31795
upperneck -8.4446 -3.84484 2.17307
head -3.65682 -1.89689 1.49242
rclavicle -6.04305e-014 2.62396e-014
rhumerus 18.786 10.7842 -79.7827
rradius 126.913
rwrist 24.6642
rhand 22.2431 -4.7034
rfingers 7.12502
rthumb 46.6187 -27.5358
lclavicle -6.04305e-014 2.62396e-014
lhumerus 23.9998 -16.7827 79.2443
lradius 128.707
lwrist -15.3899
lhand 14.9836 40.3864
lfingers 7.12502
lthumb 39.8362 65.6617
rfemur -37.2733 -1.78241 15.7603
rtibia 58.3551
rfoot -26.1663 -15.7304
rtoes -9.16294
lfemur -35.9793 0.411603 -22.173
ltibia 52.8067
lfoot -21.9067 2.95388
ltoes -17.8315
2012
root -0.549754 16.742 -1.58628 6.94435 3.79748 5.32828
lowerback 20.3538 3.9322 0.196025
upperback 11.9201 5.14944 -0.934535
thorax 1.6866 2.65678 -2.03569
lowerneck 5.93246 -2.69189 -3.50649
upperneck -8.57592 -3.76337 2.19016
head -3.73703 -1.85013 1.53543
rclavicle 2.94201e-014 -7.15625e-015
rhumerus 18.887 11.0144 -79.7439
rradius 126.944
rwrist 24.5264
rhand 22.1596 -4.72284
rfingers 7.12502
rthumb 46.5413 -27.5885
lclavicle 2.94201e-014 -7.15625e-015
lhumerus 23.8794 -16.6121 79.3342
lradius 128.704
lwrist -15.3864
lhand 15.0378 40.3023
lfingers 7.12502
lthumb 39.8873 65.5623
rfemur -37.1827 -1.89437 15.8286
rtibia 58.2974
rfoot -26.2294 -15.7216
rtoes -9.05844
lfemur -35.9394 0.289762 -22.0973
ltibia 52.7328
lfoot -21.8522 2.8404
ltoes -17.6319
2013
root -0.55534 16.748 -1.58459 6.92265 3.96182 5.30295
lowerback 20.4456 3.7792 -0.0428446
upperback 11.8453 4.91247 -0.801151
thorax 1.51538 2.51832 -1.72965
lowerneck 6.15097 -2.50998 -3.92997
upperneck -8.57553 -3.56936 2.16958
head -3.78106 -1.73903 1.60066
rclavicle -3.97569e-014 1.90833e-014
rhumerus 18.9095 11.6467 -79.7145
rradius 126.956
rwrist 24.4982
rhand 22.0394 -4.79316
rfingers 7.12502
rthumb 46.4299 -27.7065
lclavicle -3.97569e-014 1.90833e-014
lhumerus 23.4037 -16.1458 79.5585
lradius 128.752
lwrist -15.5064
lhand 15.0287 40.173
lfingers 7.12502
lthumb 39.8787 65.4356
rfemur -37.0787 -2.01857 15.8923
rtibia 58.2397
rfoot -26.2885 -15.7036
rtoes -8.99923
lfemur -35.8842 0.140483 -22.0275
ltibia 52.6663
lfoot -21.7622 2.79804
ltoes -17.5537
2014
root -0.561027 16.7527 -1.58484 6.93105 4.11748 5.28391
lowerback 20.4778 3.70066 -0.136599
upperback 11.8262 4.79647 -0.761971
thorax 1.46295 2.45371 -1.61807
lowerneck 6.16518 -2.46082 -4.04525
upperneck -8.5384 -3.51609 2.15805
head -3.77137 -1.70861 1.61444
rclavicle -1.66979e-014 1.19271e-014
rhumerus 18.965 11.8807 -79.7431
rradius 126.97
rwrist 24.4945
rhand 22.1026 -4.81387
rfingers 7.12502
rthumb 46.4886 -27.7022
lclavicle -1.66979e-014 1.19271e-014
lhumerus 23.2422 -15.995 79.5606
lradius 128.845
lwrist -15.5209
lhand 15.1901 40.2517
lfingers 7.12502
lthumb 40.0305 65.4685
rfemur -37.0406 -2.13579 15.9468
rtibia 58.191
rfoot -26.2721 -15.7472
rtoes -8.89666
lfemur -35.8822 0.0165696 -21.9697
ltibia 52.6087
lfoot -21.6363 2.69047
ltoes -17.1906
2015
root -0.566222 16.7536 -1.58399 6.93322 4.23485 5.26277
lowerback 20.5079 3.69379 -0.15082
upperback 11.8344 4.7859 -0.764583
thorax 1.45584 2.44823 -1.61265
lowerneck 6.07866 -2.47513 -4.02437
upperneck -8.4781 -3.52912 2.16457
head -3.73275 -1.71657 1.60997
rclavicle 3.89618e-014 -1.19271e-014
rhumerus 18.9726 11.8484 -79.7896
rradius 127.003
rwrist 24.5109
rhand 22.1326 -4.842
rfingers 7.12502
rthumb 46.5164 -27.7184
lclavicle 3.89618e-014 -1.19271e-014
lhumerus 23.3446 -15.86 79.4545
lradius 128.856
lwrist -15.3193
lhand 15.29 40.2965
lfingers 7.12502
lthumb 40.1246 65.4848
rfemur -37.0035 -2.22835 16.0032
rtibia 58.1513
rfoot -26.236 -15.8417
rtoes -9.07213
lfemur -35.8809 -0.0528847 -21.9171
ltibia 52.5701
lfoot -21.5501 2.55405
ltoes -17.0669
2016
root -0.570388 16.7544 -1.58186 6.94378 4.33908 5.2655
lowerback 20.5492 3.77997 -0.0544225
upperback 11.8372 4.91288 -0.844239
thorax 1.45834 2.52067 -1.77639
lowerneck 5.95714 -2.6101 -3.64762
upperneck -8.40756 -3.67525 2.10488
head -3.68492 -1.7994 1.52496
rclavicle -6.20208e-014 2.8625e-014
rhumerus 18.9159 11.4709 -79.8658
rradius 127.031
rwrist 24.5605
rhand 22.3197 -4.87612
rfingers 7.12502
rthumb 46.6896 -27.6779
lclavicle -6.20208e-014 2.8625e-014
lhumerus 23.659 -15.9084 79.2133
lradius 128.833
lwrist -14.8062
lhand 15.2053 40.4096
lfingers 7.12502
lthumb 40.0448 65.6222
rfemur -36.9621 -2.3112 16.0288
rtibia 58.125
rfoot -26.2889 -15.8292
rtoes -8.956
lfemur -35.888 -0.0903685 -21.9029
ltibia 52.5478
lfoot -21.5374 2.55782
ltoes -17.5266
